<?xml version="1.0" encoding="UTF-8"?>
<svg version="1.1" xmlns="http://www.w3.org/2000/svg" width="512" height="512">
<path d="M0 0 C0.87897949 0.24169922 1.75795898 0.48339844 2.66357422 0.73242188 C25.40979368 7.15795679 47.82987685 18.22250154 67 32 C68.05445313 32.74507812 69.10890625 33.49015625 70.1953125 34.2578125 C87.91582301 47.16648725 104.79894609 62.45170247 118 80 C118.48533203 80.63599121 118.97066406 81.27198242 119.47070312 81.92724609 C127.70878917 92.77038912 134.79879544 103.88025975 141 116 C141.41878418 116.80775879 141.83756836 117.61551758 142.26904297 118.44775391 C170.34058772 173.07087716 174.36868664 237.40445703 156.40356445 295.87841797 C148.41598597 320.65464702 136.22639181 344.59856942 120 365 C119.03320312 366.25490234 119.03320312 366.25490234 118.046875 367.53515625 C106.4480805 382.41084594 93.00514997 396.54625479 78 408 C77.35820801 408.49113281 76.71641602 408.98226563 76.05517578 409.48828125 C65.21833386 417.71917435 54.11127757 424.80312547 42 431 C41.19224121 431.41878418 40.38448242 431.83756836 39.55224609 432.26904297 C-15.99495485 460.81548346 -81.36570798 464.50467727 -140.625 445.5625 C-161.21299906 438.64544897 -181.36480811 428.67714207 -199 416 C-199.99314209 415.30124756 -199.99314209 415.30124756 -201.00634766 414.58837891 C-211.46941384 407.19901022 -220.83741854 398.93305523 -230 390 C-231.02207894 389.01817037 -232.04421121 388.03639626 -233.06640625 387.0546875 C-273.89597028 347.19049563 -297.96813453 288.99325893 -299.203125 232.1796875 C-299.47757127 206.71350554 -296.89875845 182.58145217 -290 158 C-289.74766602 157.09975098 -289.49533203 156.19950195 -289.23535156 155.27197266 C-272.89510676 98.69098342 -231.64015669 48.65133072 -180.27685547 20.22314453 C-124.37146182 -9.80966934 -61.25586077 -17.10999981 0 0 Z M-218.45507812 69.50195312 C-219.73191664 70.74005065 -221.02762426 71.95865619 -222.328125 73.171875 C-228.61750903 79.15445981 -233.77242785 86.09826386 -239 93 C-239.72574219 93.95390625 -240.45148438 94.9078125 -241.19921875 95.890625 C-275.45253998 141.92062839 -289.19139495 200.28667071 -281.0390625 256.90234375 C-275.28067946 292.61462184 -261.15264244 326.36702025 -239 355 C-238.37867188 355.81339844 -237.75734375 356.62679688 -237.1171875 357.46484375 C-231.77213675 364.31386627 -225.95620254 370.68467349 -220 377 C-219.3090625 377.73347656 -218.618125 378.46695312 -217.90625 379.22265625 C-212.65965431 384.63052025 -206.89730227 389.32225316 -201 394 C-200.13117188 394.70125 -199.26234375 395.4025 -198.3671875 396.125 C-197.56539063 396.764375 -196.76359375 397.40375 -195.9375 398.0625 C-195.22464844 398.63097656 -194.51179688 399.19945312 -193.77734375 399.78515625 C-192.08361821 401.18809786 -192.08361821 401.18809786 -190 401 C-189.99120064 399.2801741 -189.99120064 399.2801741 -189.98222351 397.52560425 C-189.92477007 386.66931613 -189.85189211 375.81322398 -189.76428509 364.95713615 C-189.71974148 359.37720079 -189.68045082 353.79733575 -189.65356445 348.21728516 C-189.62737084 342.82250565 -189.58685714 337.42799915 -189.53681374 332.03339005 C-189.52025289 329.98517401 -189.50867202 327.93691088 -189.50238609 325.88863754 C-189.41738361 300.71435893 -184.15488503 278.42940168 -165.94921875 259.82421875 C-152.4573751 246.61895923 -135.63320859 239.38222034 -117 237 C-119.48593752 234.41048175 -122.09640309 232.02914471 -124.8125 229.6875 C-126.20981819 228.46002159 -127.60568966 227.23089401 -129 226 C-129.85271484 225.26716797 -129.85271484 225.26716797 -130.72265625 224.51953125 C-144.42465433 211.9188758 -151.70087269 193.94823735 -155 176 C-155.13148438 175.29746094 -155.26296875 174.59492188 -155.3984375 173.87109375 C-158.81365476 151.76448473 -153.01858315 128.44063141 -140.3515625 110.18359375 C-136.86345473 105.4613216 -133.142492 101.1566302 -129 97 C-128.26523438 96.24203125 -127.53046875 95.4840625 -126.7734375 94.703125 C-115.92746915 84.18362393 -102.43952492 77.92306727 -88 74 C-86.70835937 73.63261719 -86.70835937 73.63261719 -85.390625 73.2578125 C-62.55304682 67.94843923 -37.39640885 73.05415758 -17.53515625 85.03125 C-4.29722439 93.72011847 5.17360659 104.36017445 13 118 C13.75410156 119.31291016 13.75410156 119.31291016 14.5234375 120.65234375 C25.54899212 141.26678982 26.49475213 165.88920719 20.4140625 188.14453125 C14.79870746 206.5504172 3.41380865 220.61387661 -10.93359375 233.1875 C-12.33043823 234.41270953 -13.68616727 235.68616727 -15 237 C-14.06800781 237.15855469 -13.13601563 237.31710937 -12.17578125 237.48046875 C11.07284694 241.7352733 30.1108403 252.37617127 43.96484375 271.76171875 C52.57427095 285.46078814 57.09675133 300.1361243 57.20532227 316.31005859 C57.21522186 317.22777039 57.22512146 318.14548218 57.23532104 319.09100342 C57.26678959 322.11012229 57.29163534 325.12925687 57.31640625 328.1484375 C57.33698843 330.24736936 57.35798523 332.3462972 57.37937927 334.44522095 C57.43446936 339.95905284 57.48393608 345.47292133 57.53222656 350.98681641 C57.58253716 356.617546 57.63817326 362.2482227 57.69335938 367.87890625 C57.8007811 378.91922561 57.90226135 389.95959097 58 401 C61.14272485 399.78460047 63.6569826 398.72245757 66.19921875 396.49609375 C66.76358643 396.00729736 67.3279541 395.51850098 67.90942383 395.01489258 C68.49618896 394.49435303 69.0829541 393.97381348 69.6875 393.4375 C70.30326904 392.89955811 70.91903809 392.36161621 71.5534668 391.80737305 C73.37518285 390.21180105 75.18827339 388.60689601 77 387 C77.93070312 386.18273437 78.86140625 385.36546875 79.8203125 384.5234375 C82.24053383 382.37634459 84.62890075 380.20115698 87 378 C88.10214844 376.9790625 88.10214844 376.9790625 89.2265625 375.9375 C95.8934854 369.52971545 101.4567826 362.37237963 107 355 C107.63639404 354.16275391 107.63639404 354.16275391 108.28564453 353.30859375 C142.36489038 308.2424867 157.03406825 250.59188884 149.40820312 194.65966797 C142.11123712 146.02133569 120.31129555 103.9808074 86 69 C85.41653809 68.39679932 84.83307617 67.79359863 84.23193359 67.17211914 C80.45400577 63.31292865 76.53216789 59.84949475 72.25 56.5625 C71.64293213 56.09223389 71.03586426 55.62196777 70.41040039 55.13745117 C68.61254776 53.75076557 66.80794808 52.37348787 65 51 C64.04480469 50.27296875 63.08960938 49.5459375 62.10546875 48.796875 C-15.65597277 -9.04033187 -122.64139122 -5.38173459 -218.45507812 69.50195312 Z M-116 106 C-117.15435547 107.01513672 -117.15435547 107.01513672 -118.33203125 108.05078125 C-133.33506093 122.03145797 -140.59138359 141.8588247 -141.375 162.0625 C-140.47377701 185.06327803 -130.24338435 203.6213696 -113.6875 219.1875 C-97.17341391 233.33428187 -77.21923263 237.44750101 -56 236 C-36.34203092 233.5342806 -19.91373916 222.62700472 -7 208 C5.30123384 191.49484935 11.14074987 171.58336172 8.28149414 151.11547852 C5.06939747 130.77827881 -5.49139038 112.80467422 -22.2578125 100.55078125 C-51.29203311 80.41540341 -89.70121666 82.20161032 -116 106 Z M-158.41796875 274.07421875 C-169.10260204 287.08045137 -174.35459198 301.89339603 -174.22705078 318.56860352 C-174.22734283 319.58428909 -174.22763489 320.59997467 -174.22793579 321.6464386 C-174.22655231 324.97401742 -174.21103754 328.30136697 -174.1953125 331.62890625 C-174.19157888 333.94774758 -174.18873356 336.26659049 -174.18673706 338.58543396 C-174.17912812 344.66647759 -174.15950323 350.74742454 -174.1373291 356.82843018 C-174.11681154 363.04250786 -174.10772273 369.25660128 -174.09765625 375.47070312 C-174.07625469 387.64717771 -174.04215196 399.82358079 -174 412 C-171.76904315 413.28715252 -169.53668806 414.57176734 -167.3034668 415.85498047 C-166.67641594 416.21710129 -166.04936508 416.57922211 -165.40331268 416.95231628 C-160.66316622 419.67223602 -155.87835285 422.06478767 -150.8125 424.125 C-149.61705566 424.61673706 -149.61705566 424.61673706 -148.39746094 425.1184082 C-95.36767442 446.4958457 -36.0229951 446.82166484 17 425 C24.08392697 421.90954089 31.24024601 418.75719534 38 415 C39.03785645 414.52052917 39.03785645 414.52052917 40.09667969 414.03137207 C43.24938349 410.66656037 42.55589678 406.7902599 42.51757812 402.35058594 C42.5245874 401.35987091 42.53159668 400.36915588 42.53881836 399.34841919 C42.55647501 396.06012216 42.54473735 392.77268145 42.53125 389.484375 C42.53394527 387.19288976 42.53782798 384.90140564 42.54284668 382.60992432 C42.54875424 377.79452686 42.54014759 372.97942557 42.52148438 368.1640625 C42.49884839 362.02789178 42.51171221 355.89242682 42.53577423 349.75628281 C42.55033019 345.01522656 42.54557894 340.27433334 42.53526306 335.53327179 C42.5326147 333.27372401 42.53579811 331.01416089 42.54518127 328.75463104 C42.61769047 306.35758309 39.54294556 287.42878376 23.015625 270.79296875 C5.02963041 253.64969933 -15.38976769 251.68132128 -39.01953125 251.69921875 C-41.16745587 251.69532441 -43.31537973 251.69098824 -45.46330261 251.68623352 C-49.95252993 251.6787991 -54.44167857 251.67904218 -58.9309082 251.68432617 C-64.64981636 251.69011423 -70.36839995 251.673192 -76.08725452 251.6499815 C-80.52025701 251.6351636 -84.9531828 251.63438342 -89.38620567 251.63749123 C-91.49307586 251.63698197 -93.5999508 251.63181952 -95.70679665 251.62167931 C-120.07625149 251.51877455 -140.89000209 255.52272119 -158.41796875 274.07421875 Z " fill="#000000" transform="translate(322,32)"/>
</svg>
